<svg id="Icon" xmlns="http://www.w3.org/2000/svg" width="60" height="60" viewBox="0 0 60 60">
  <rect id="Bg" width="60" height="60" rx="30" fill="rgba(59,212,228,0.15)"/>
  <g id="vespa" transform="translate(18 19)">
    <path id="Shape" d="M22.775,15.13,20.389,8H22V2H18a2.966,2.966,0,0,0-1,.184V1a1,1,0,0,0-1-1H12V2h3V12a1,1,0,0,1-1,1H12a1,1,0,0,1-1-1V7A3,3,0,0,0,8,4H3A3,3,0,0,0,0,7v9a2.994,2.994,0,0,0,2.094,2.845A3.988,3.988,0,0,0,9.858,19h6.284a3.992,3.992,0,1,0,6.633-3.87ZM18,4h2V6H18a1,1,0,0,1,0-2ZM2,7A1,1,0,0,1,3,6H8A1,1,0,0,1,9,7V8H2ZM6,20a2,2,0,1,1,2-2A2,2,0,0,1,6,20Zm14,0a2,2,0,1,1,2-2A2,2,0,0,1,20,20Z" fill="#3bd4e4" fill-rule="evenodd"/>
  </g>
</svg>
