<svg id="message-icon" xmlns="http://www.w3.org/2000/svg" width="54" height="54" viewBox="0 0 54 54">
  <g id="Oval">
    <circle id="Ellipse_32" data-name="Ellipse 32" cx="27" cy="27" r="27"/>
    <circle id="Ellipse_33" data-name="Ellipse 33" cx="27" cy="27" r="27" fill="#fff"/>
  </g>
  <path id="Combined-Shape" d="M29.486,33,27.8,36.057a1,1,0,0,1-1.709.069L24.017,33H20a3,3,0,0,1-3-3V21a3,3,0,0,1,3-3H34a3,3,0,0,1,3,3v9a3,3,0,0,1-3,3ZM21,22a1,1,0,0,0,0,2h9a1,1,0,0,0,0-2Zm0,4a1,1,0,0,0,0,2h5a1,1,0,0,0,0-2Z" fill="#d40505" fill-rule="evenodd"/>
</svg>
