<svg xmlns="http://www.w3.org/2000/svg" width="16.771" height="22.396" viewBox="0 0 16.771 22.396">
  <path id="Path_152" data-name="Path 152" d="M14.052,5.708a2.083,2.083,0,1,0-2.083-2.083A2.089,2.089,0,0,0,14.052,5.708ZM10.3,20.187,11.344,15.6l2.188,2.083v6.25h2.083V16.125l-2.187-2.083.625-3.125a7.628,7.628,0,0,0,5.729,2.6V11.437a5.124,5.124,0,0,1-4.479-2.5L14.26,7.271A2.148,2.148,0,0,0,12.49,6.229c-.313,0-.521.1-.833.1L6.24,8.625v4.9H8.323V9.979L10.2,9.25,8.531,17.687l-5.1-1.042L3.01,18.729Z" transform="translate(-3.01 -1.542)"/>
</svg>
