<svg xmlns="http://www.w3.org/2000/svg" width="60" height="60" viewBox="0 0 60 60">
  <g id="Group_16" data-name="Group 16" transform="translate(-134)">
    <rect id="Bg" width="60" height="60" rx="30" transform="translate(134)" fill="#f1f3f8"/>
    <g id="bill" transform="translate(154 18)">
      <path id="Shape" d="M19,0H1A1,1,0,0,0,0,1V23.868L4,21.2l3,2,3-2,3,2,3-2,4,2.666V1A1,1,0,0,0,19,0ZM11,15H4V13h7Zm-1-5a3,3,0,1,1,2.121-.879A3,3,0,0,1,10,10Zm6,5H13V13h3Z" fill="#8d92a3" fill-rule="evenodd"/>
    </g>
  </g>
</svg>
